<svg xmlns="http://www.w3.org/2000/svg" viewBox="0 0 753.05 536.71"><defs><style>.cls-1,.cls-14{fill:#fff;}.cls-1{opacity:0.05;}.cls-2{fill:#006176;}.cls-3{fill:#00b2cf;}.cls-4{fill:#ededec;}.cls-5{fill:#00a0bb;}.cls-6{fill:#dc6880;}.cls-7{fill:#fccb33;}.cls-8{fill:#87cfe2;}.cls-9{fill:#f5f1ec;}.cls-10{fill:#e2e1e0;}.cls-11{fill:#0098b1;}.cls-12{fill:#008398;}.cls-13{fill:#005265;}.cls-15{fill:#ffe441;}.cls-16{fill:#008fa7;}.cls-17{fill:#004e5f;}.cls-18{fill:#67bac7;}.cls-19{fill:#6ec3d2;}.cls-20{fill:#c9e8f2;}.cls-21{fill:#c1e4ec;}.cls-22{fill:#e8ce36;}.cls-23{fill:#fff4ad;}.cls-24{fill:#f5eba7;}.cls-25{fill:#94d3e3;}.cls-26{fill:#8ed1de;}.cls-27{fill:#ca5d72;}.cls-28{fill:#f1bfc9;}.cls-29{fill:#e7b9c2;}.cls-30{fill:#00586a;}.cls-31{fill:#e0dbd5;}.cls-32{fill:#ceeff6;}.cls-33{fill:#002e57;}.cls-34{fill:#74bfe1;}.cls-35{fill:none;stroke:#002e57;stroke-linecap:round;stroke-linejoin:round;stroke-width:2px;}.cls-36{fill:#f7a632;}.cls-37{fill:#f8bd31;}.cls-38{fill:#1976d3;}.cls-39{fill:#3c4a58;}.cls-40{fill:#5c6a78;}.cls-41{fill:#4d5a68;}.cls-42{fill:#acbac8;}.cls-43{fill:#027065;}.cls-44{fill:#b4ccda;}.cls-45{fill:#353237;}.cls-46{fill:#96c7ce;}.cls-47{fill:#ffc034;}.cls-48{fill:#ff9430;}.cls-49{fill:#dbeffa;}.cls-50{fill:#f1f2f2;}.cls-51{fill:#edbd29;}.cls-52{fill:#00a5c0;}.cls-53{fill:#416087;}.cls-54{fill:#4e739b;}.cls-55{fill:#00596d;}.cls-56{fill:#324963;}.cls-57{fill:#3cc;}.cls-58{font-size:12px;font-family:MicrosoftJhengHeiBold, Microsoft JhengHei;}.cls-58,.cls-59{fill:#f7f8f8;}.cls-59{font-size:31.82px;font-family:MicrosoftYaHei-Bold, Microsoft YaHei;font-weight:700;letter-spacing:0.2em;}.cls-60{letter-spacing:-0.01em;}</style></defs><title>资源 1013</title><g id="图层_2" data-name="图层 2"><g id="图层_1-2" data-name="图层 1"><rect class="cls-1" y="84.82" width="753.05" height="451.89" rx="5.67"/><path class="cls-2" d="M121.67,235.4a.76.76,0,0,1-.76-.76v-2.5a.76.76,0,0,1,.76-.76.75.75,0,0,1,.75.76v2.5a.75.75,0,0,1-.75.76Z"/><path class="cls-2" d="M118.31,260.54H99.21a.75.75,0,1,1,0-1.5h19.1a1.89,1.89,0,0,0,1.88-1.89v-2.4a.76.76,0,0,1,1.51,0v2.4a3.39,3.39,0,0,1-3.39,3.39Z"/><path class="cls-2" d="M91.33,248.35a.76.76,0,0,1-.75-.76V232.14a.76.76,0,1,1,1.51,0v15.45a.76.76,0,0,1-.76.76Z"/><path class="cls-2" d="M103.28,229.67H94.55a.76.76,0,0,1,0-1.51h8.73a.76.76,0,1,1,0,1.51Z"/><path class="cls-2" d="M118.45,229.67h-8.73a.76.76,0,0,1,0-1.51h8.73a.76.76,0,0,1,0,1.51Z"/><path class="cls-3" d="M99.61,262.82H87.87a2,2,0,0,1-2-2V249.11a2,2,0,0,1,2-2H99.61a2,2,0,0,1,2,2v11.73a2,2,0,0,1-2,2"/><path class="cls-4" d="M99.61,262.82H87.87a2,2,0,0,1-2-2h0a2,2,0,0,0,2,2H99.61m0,0h0m0,0h0m0,0h0m0,0h0m0,0h0M85.9,249.11h0m0,0h0m0,0h0m0,0h0m0,0h0"/><path class="cls-5" d="M99.61,262.82H87.87a2,2,0,0,1-2-2V249.11h0a2,2,0,0,1,.93-1.66,2,2,0,0,0-.3,1V260.2a2,2,0,0,0,2,2h11.73a1.92,1.92,0,0,0,1-.3,2,2,0,0,1-1.65.94h0"/><path class="cls-6" d="M107.56,243.73a.75.75,0,0,1-.76-.75V238a.76.76,0,0,1,1.51,0V243a.75.75,0,0,1-.75.75Z"/><path class="cls-6" d="M112.18,238.78a.68.68,0,0,0-.68.68v2.09a.68.68,0,0,0,1.36,0v-2.09a.69.69,0,0,0-.68-.68Zm0,4.95a2.19,2.19,0,0,1-2.19-2.18v-2.09a2.19,2.19,0,0,1,4.38,0v2.09a2.19,2.19,0,0,1-2.19,2.18Z"/><path class="cls-6" d="M117.05,243.73a.75.75,0,0,1-.76-.75V238a.76.76,0,0,1,1.51,0V243a.75.75,0,0,1-.75.75Z"/><path class="cls-6" d="M121.67,238.78a.68.68,0,0,0-.68.68v2.09a.68.68,0,0,0,1.36,0v-2.09a.69.69,0,0,0-.68-.68Zm0,4.95a2.19,2.19,0,0,1-2.19-2.18v-2.09a2.19,2.19,0,0,1,4.38,0v2.09a2.19,2.19,0,0,1-2.19,2.18Z"/><path class="cls-6" d="M126.54,243.73a.75.75,0,0,1-.76-.75V238a.76.76,0,0,1,1.51,0V243a.75.75,0,0,1-.75.75Z"/><path class="cls-6" d="M131.16,238.78a.68.68,0,0,0-.68.68v2.09a.68.68,0,0,0,1.36,0v-2.09a.69.69,0,0,0-.68-.68Zm0,4.95a2.19,2.19,0,0,1-2.19-2.18v-2.09a2.19,2.19,0,0,1,4.38,0v2.09a2.19,2.19,0,0,1-2.19,2.18Z"/><path class="cls-6" d="M132.59,252.21a.76.76,0,0,1-.75-.75v-5a.76.76,0,1,1,1.51,0v5a.76.76,0,0,1-.76.75Z"/><path class="cls-6" d="M128,247.26a.68.68,0,0,0-.68.68V250a.68.68,0,0,0,1.36,0v-2.09a.69.69,0,0,0-.68-.68Zm0,5a2.19,2.19,0,0,1-2.19-2.18v-2.09a2.19,2.19,0,0,1,4.38,0V250a2.19,2.19,0,0,1-2.19,2.18Z"/><path class="cls-6" d="M123.1,252.21a.75.75,0,0,1-.75-.75v-5a.75.75,0,0,1,.75-.76.76.76,0,0,1,.76.76v5a.76.76,0,0,1-.76.75Z"/><path class="cls-6" d="M118.48,247.26a.68.68,0,0,0-.68.68V250a.68.68,0,0,0,1.36,0v-2.09a.69.69,0,0,0-.68-.68Zm0,5a2.19,2.19,0,0,1-2.19-2.18v-2.09a2.19,2.19,0,0,1,4.38,0V250a2.19,2.19,0,0,1-2.19,2.18Z"/><path class="cls-6" d="M113.61,252.21a.75.75,0,0,1-.75-.75v-5a.75.75,0,0,1,.75-.76.76.76,0,0,1,.76.76v5a.76.76,0,0,1-.76.75Z"/><path class="cls-6" d="M109,247.26a.68.68,0,0,0-.68.68V250a.68.68,0,0,0,1.36,0v-2.09a.69.69,0,0,0-.68-.68Zm0,5A2.19,2.19,0,0,1,106.8,250v-2.09a2.19,2.19,0,0,1,4.38,0V250a2.19,2.19,0,0,1-2.19,2.18Z"/><path class="cls-7" d="M91.33,225.7a3.22,3.22,0,1,1-3.21,3.22,3.22,3.22,0,0,1,3.21-3.22Z"/><path class="cls-5" d="M93.25,258.87a3.37,3.37,0,1,1,3.37-3.37,3.37,3.37,0,0,1-3.37,3.37"/><path class="cls-8" d="M93.7,251.76A3.22,3.22,0,1,1,90.49,255a3.22,3.22,0,0,1,3.21-3.22Z"/><path class="cls-9" d="M106.5,225.7a3.22,3.22,0,1,1-3.22,3.22,3.22,3.22,0,0,1,3.22-3.22Z"/><path class="cls-8" d="M121.67,225.7a3.22,3.22,0,1,1-3.22,3.22,3.22,3.22,0,0,1,3.22-3.22Z"/><path class="cls-3" d="M234,261.31h-2a.73.73,0,0,1-.73-.72v-1.77h3.5v1.77a.72.72,0,0,1-.73.72"/><polyline class="cls-10" points="234.7 259.76 234.7 259.76 234.7 258.82 234.7 258.82 234.7 259.76"/><polyline class="cls-11" points="234.7 259.76 231.21 259.76 231.21 258.82 231.21 258.82 234.7 258.82 234.7 259.76"/><path class="cls-3" d="M248.92,261.31h-2a.73.73,0,0,1-.73-.72v-1.77h3.5v1.77a.73.73,0,0,1-.73.72"/><polyline class="cls-10" points="246.15 259.76 246.15 259.76 246.15 258.82 246.15 258.82 246.15 259.76"/><polyline class="cls-11" points="249.65 259.76 246.15 259.76 246.15 258.82 249.65 258.82 249.65 259.76"/><path class="cls-3" d="M259.66,261.31h-2a.73.73,0,0,1-.73-.72v-1.77h3.5v1.77a.73.73,0,0,1-.73.72"/><path class="cls-10" d="M260.39,259.76h0v-.94h0v.94m-3.5,0h0v0"/><polyline class="cls-11" points="260.39 259.76 256.89 259.76 256.89 258.82 260.39 258.82 260.39 259.76"/><path class="cls-3" d="M274.61,261.31h-2a.73.73,0,0,1-.73-.72v-1.77h3.5v1.77a.73.73,0,0,1-.73.72"/><path class="cls-10" d="M275.34,259.76h0v-.94h0v.94m-3.5,0h0v-.94h0v.94"/><polyline class="cls-11" points="275.34 259.76 271.84 259.76 271.84 258.82 275.34 258.82 275.34 259.76"/><path class="cls-2" d="M249.65,258.82H231.2a1.65,1.65,0,0,1-1.65-1.65V228.86a1.65,1.65,0,0,1,1.65-1.65h18.45a1.66,1.66,0,0,1,1.66,1.65v28.31a1.66,1.66,0,0,1-1.66,1.65"/><path class="cls-10" d="M249.65,258.82h0a1.55,1.55,0,0,0,.37,0,1.55,1.55,0,0,1-.37,0m-3.5,0h0m-15,0a1.65,1.65,0,0,1-1.65-1.65h0a1.65,1.65,0,0,0,1.65,1.65h0"/><polyline class="cls-11" points="234.7 258.82 231.21 258.82 231.21 258.82 231.21 258.82 231.21 258.82 234.7 258.82 234.7 258.82"/><polyline class="cls-11" points="249.65 258.82 249.65 258.82 249.65 258.82 246.15 258.82 246.15 258.82 249.65 258.82 249.65 258.82"/><polyline class="cls-12" points="249.65 258.82 246.15 258.82 249.65 258.82"/><path class="cls-10" d="M229.55,228.86h0m0,0h0m0,0h0m0,0h0m0,0h0"/><path class="cls-13" d="M249.65,258.82H231.2a1.65,1.65,0,0,1-1.65-1.65V228.86h0a1.64,1.64,0,0,1,.93-1.46,1.62,1.62,0,0,0-.1.54v28.31a1.65,1.65,0,0,0,1.66,1.65h18.44a1.6,1.6,0,0,0,.73-.17,1.63,1.63,0,0,1-1.19,1.07,1.55,1.55,0,0,1-.37,0"/><path class="cls-3" d="M238.12,255.91h-5a.83.83,0,0,1-.83-.83V247a.84.84,0,0,1,.83-.84h5a.84.84,0,0,1,.83.84v8.08a.83.83,0,0,1-.83.83"/><path class="cls-11" d="M239,247.66a.84.84,0,0,0-.83-.84h-5a.84.84,0,0,0-.83.84V247a.83.83,0,0,1,.83-.83h5a.83.83,0,0,1,.83.83v.66"/><path class="cls-3" d="M247.6,240.07H233.25a1,1,0,0,1-1-1V231a1,1,0,0,1,1-1H247.6a1,1,0,0,1,1,1v8.15a1,1,0,0,1-1,1"/><path class="cls-8" d="M248.57,233.71H232.28V231a1,1,0,0,1,1-1H247.6a1,1,0,0,1,1,1v2.76"/><path class="cls-14" d="M234.62,231.09a.75.75,0,0,1,.75.75.76.76,0,1,1-.75-.75Z"/><path class="cls-6" d="M237.14,231.09a.75.75,0,0,1,.76.75.76.76,0,1,1-1.52,0,.75.75,0,0,1,.76-.75Z"/><path class="cls-15" d="M248.57,244H232.28a.77.77,0,0,1,0-1.53h16.29a.77.77,0,1,1,0,1.53Z"/><path class="cls-14" d="M240.43,242a1.21,1.21,0,1,1-1.21,1.21,1.21,1.21,0,0,1,1.21-1.21Z"/><polyline class="cls-16" points="238.95 251.8 232.28 251.8 232.28 250.27 238.95 250.27 238.95 251.8"/><polyline class="cls-16" points="238.95 249.43 232.28 249.43 232.28 247.9 238.95 247.9 238.95 249.43"/><polyline class="cls-16" points="238.95 254.17 232.28 254.17 232.28 252.64 238.95 252.64 238.95 254.17"/><path class="cls-3" d="M247.74,255.91h-5a.83.83,0,0,1-.83-.83V247a.84.84,0,0,1,.83-.84h5a.84.84,0,0,1,.83.84v8.08a.83.83,0,0,1-.83.83"/><polyline class="cls-17" points="248.57 251.8 248.57 251.8 248.57 250.27 248.57 250.27 248.57 251.8"/><polyline class="cls-16" points="248.57 251.8 241.9 251.8 241.9 250.27 248.57 250.27 248.57 251.8"/><polyline class="cls-17" points="248.57 249.43 248.57 249.43 248.57 247.9 248.57 247.9 248.57 249.43"/><polyline class="cls-16" points="248.57 249.43 241.9 249.43 241.9 247.9 248.57 247.9 248.57 249.43"/><polyline class="cls-17" points="248.57 254.17 248.57 254.17 248.57 252.64 248.57 252.64 248.57 254.17"/><polyline class="cls-16" points="248.57 254.17 241.9 254.17 241.9 252.64 248.57 252.64 248.57 254.17"/><path class="cls-14" d="M246.39,238.48h-4.93a.77.77,0,0,1,0-1.53h4.93a.77.77,0,0,1,0,1.53Z"/><path class="cls-13" d="M248.57,231.76h0V231a1,1,0,0,0-1-1H233.25a1,1,0,0,0-1,1h0a1,1,0,0,1,1-1H247.6a1,1,0,0,1,1,1v.81"/><path class="cls-11" d="M232.28,231.76V231a1,1,0,0,1,.3-.7,1,1,0,0,0-.3.7v.8h0"/><path class="cls-18" d="M248.57,231.76a1,1,0,0,0-1-1H233.25a1,1,0,0,0-1,1V231a1,1,0,0,1,1-1H247.6a1,1,0,0,1,1,1v.81"/><path class="cls-11" d="M248.57,247.66a.84.84,0,0,0-.83-.84h-5a.84.84,0,0,0-.83.84V247a.83.83,0,0,1,.83-.83h5a.83.83,0,0,1,.83.83v.66"/><path class="cls-2" d="M275.34,258.82H256.89a1.66,1.66,0,0,1-1.66-1.65V228.86a1.66,1.66,0,0,1,1.66-1.65h18.45a1.66,1.66,0,0,1,1.66,1.65v28.31a1.66,1.66,0,0,1-1.66,1.65"/><path class="cls-10" d="M256.89,258.82a1.66,1.66,0,0,1-1.66-1.65h0a1.66,1.66,0,0,0,1.66,1.65h0"/><path class="cls-10" d="M275.34,258.82h0m0,0h0m0,0h0m0,0h0m0,0h0m-20.13-30h0m0,0h0m0,0h0m0,0h0m0,0h0m0,0v0m0,0h0m0,0h0m0,0h0m0,0h0m0,0h0m0,0h0m0,0h0"/><path class="cls-13" d="M275.34,258.82H256.89a1.66,1.66,0,0,1-1.66-1.65V228.86h0v0h0a1.65,1.65,0,0,1,.92-1.41,1.61,1.61,0,0,0-.09.54v28.31a1.65,1.65,0,0,0,1.66,1.65h18.44a1.63,1.63,0,0,0,.73-.17,1.66,1.66,0,0,1-1.54,1.11h0"/><path class="cls-3" d="M263.81,255.91h-5a.83.83,0,0,1-.83-.83V247a.84.84,0,0,1,.83-.84h5a.84.84,0,0,1,.83.84v8.08a.83.83,0,0,1-.83.83"/><path class="cls-11" d="M264.64,247.66a.84.84,0,0,0-.83-.84h-5a.84.84,0,0,0-.83.84V247a.83.83,0,0,1,.83-.83h5a.83.83,0,0,1,.83.83v.66"/><path class="cls-3" d="M273.29,240.07H258.94a1,1,0,0,1-1-1V231a1,1,0,0,1,1-1h14.35a1,1,0,0,1,1,1v8.15a1,1,0,0,1-1,1"/><path class="cls-8" d="M274.26,233.71H258V231a1,1,0,0,1,1-1h14.35a1,1,0,0,1,1,1v2.76"/><path class="cls-14" d="M260.3,231.09a.75.75,0,0,1,.76.75.76.76,0,0,1-1.52,0,.75.75,0,0,1,.76-.75Z"/><path class="cls-15" d="M262.83,231.09a.75.75,0,0,1,.76.75.76.76,0,0,1-1.52,0,.75.75,0,0,1,.76-.75Z"/><path class="cls-15" d="M274.26,244H258a.77.77,0,1,1,0-1.53h16.29a.77.77,0,1,1,0,1.53Z"/><path class="cls-14" d="M266.12,242a1.21,1.21,0,1,1-1.21,1.21,1.21,1.21,0,0,1,1.21-1.21Z"/><polyline class="cls-17" points="257.97 251.8 257.97 251.8 257.97 250.27 257.97 250.27 257.97 251.8"/><polyline class="cls-16" points="264.64 251.8 257.97 251.8 257.97 250.27 264.64 250.27 264.64 251.8"/><polyline class="cls-17" points="257.97 249.43 257.97 249.43 257.97 247.9 257.97 247.9 257.97 249.43"/><polyline class="cls-16" points="264.64 249.43 257.97 249.43 257.97 247.9 264.64 247.9 264.64 249.43"/><polyline class="cls-17" points="257.97 254.17 257.97 254.17 257.97 252.64 257.97 252.64 257.97 254.17"/><polyline class="cls-16" points="264.64 254.17 257.97 254.17 257.97 252.64 264.64 252.64 264.64 254.17"/><path class="cls-3" d="M273.43,255.91h-5a.83.83,0,0,1-.83-.83V247a.84.84,0,0,1,.83-.84h5a.84.84,0,0,1,.83.84v8.08a.83.83,0,0,1-.83.83"/><polyline class="cls-17" points="267.59 251.8 267.59 251.8 267.59 250.27 267.59 251.8"/><polyline class="cls-16" points="274.26 251.8 267.59 251.8 267.59 250.27 274.26 250.27 274.26 251.8"/><polyline class="cls-17" points="267.59 249.43 267.59 249.43 267.59 247.9 267.59 249.43"/><polyline class="cls-16" points="274.26 249.43 267.59 249.43 267.59 247.9 274.26 247.9 274.26 249.43"/><polyline class="cls-17" points="267.59 254.17 267.59 254.17 267.59 252.64 267.59 254.17"/><polyline class="cls-16" points="274.26 254.17 267.59 254.17 267.59 252.64 274.26 252.64 274.26 254.17"/><path class="cls-14" d="M272.08,238.48h-4.93a.77.77,0,1,1,0-1.53h4.93a.77.77,0,0,1,0,1.53Z"/><path class="cls-13" d="M274.26,231.76h0V231a1,1,0,0,0-1-1H258.94a1,1,0,0,0-.68.28,1.3,1.3,0,0,0-.18.23,1,1,0,0,1,.86-.51h14.35a1,1,0,0,1,1,1v.81"/><path class="cls-11" d="M258,231h0a1,1,0,0,1,.11-.46,1.3,1.3,0,0,1,.18-.23,1,1,0,0,0-.29.69"/><path class="cls-18" d="M274.26,231.76a1,1,0,0,0-1-1H258.94a1,1,0,0,0-1,1V231a1,1,0,0,1,1-1h14.35a1,1,0,0,1,1,1v.81"/><path class="cls-11" d="M274.26,247.66a.84.84,0,0,0-.83-.84h-5a.84.84,0,0,0-.83.84V247a.83.83,0,0,1,.83-.83h5a.83.83,0,0,1,.83.83v.66"/><path class="cls-3" d="M234,427.74h-2a.73.73,0,0,1-.73-.73v-1.76h3.5V427a.73.73,0,0,1-.73.73"/><polyline class="cls-10" points="234.7 426.18 234.7 426.18 234.7 425.25 234.7 425.25 234.7 426.18"/><polyline class="cls-11" points="234.7 426.18 231.21 426.18 231.21 425.25 231.21 425.25 234.7 425.25 234.7 426.18"/><path class="cls-3" d="M248.92,427.74h-2a.73.73,0,0,1-.73-.73v-1.76h3.5V427a.73.73,0,0,1-.73.73"/><polyline class="cls-10" points="246.15 426.18 246.15 426.18 246.15 425.25 246.15 425.25 246.15 426.18"/><polyline class="cls-11" points="249.65 426.18 246.15 426.18 246.15 425.25 249.65 425.25 249.65 426.18"/><path class="cls-3" d="M259.66,427.74h-2a.73.73,0,0,1-.73-.73v-1.76h3.5V427a.73.73,0,0,1-.73.73"/><path class="cls-10" d="M260.39,426.18h0v-.93h0v.93m-3.5,0h0v0"/><polyline class="cls-11" points="260.39 426.18 256.89 426.18 256.89 425.25 260.39 425.25 260.39 426.18"/><path class="cls-3" d="M274.61,427.74h-2a.73.73,0,0,1-.73-.73v-1.76h3.5V427a.73.73,0,0,1-.73.73"/><path class="cls-10" d="M275.34,426.18h0v-.93h0v.93m-3.5,0h0v-.93h0v.93"/><polyline class="cls-11" points="275.34 426.18 271.84 426.18 271.84 425.25 275.34 425.25 275.34 426.18"/><path class="cls-2" d="M249.65,425.25H231.2a1.65,1.65,0,0,1-1.65-1.66v-28.3a1.65,1.65,0,0,1,1.65-1.66h18.45a1.66,1.66,0,0,1,1.66,1.66v28.3a1.66,1.66,0,0,1-1.66,1.66"/><path class="cls-10" d="M249.65,425.25h0a1.55,1.55,0,0,0,.37,0,1.55,1.55,0,0,1-.37,0m-3.5,0h0m-15,0a1.65,1.65,0,0,1-1.65-1.66h0a1.65,1.65,0,0,0,1.65,1.66h0"/><polyline class="cls-11" points="234.7 425.25 231.21 425.25 231.21 425.25 231.21 425.25 231.21 425.25 234.7 425.25 234.7 425.25"/><polyline class="cls-11" points="249.65 425.25 249.65 425.25 249.65 425.25 246.15 425.25 246.15 425.25 249.65 425.25 249.65 425.25"/><polyline class="cls-12" points="249.65 425.25 246.15 425.25 249.65 425.25"/><path class="cls-10" d="M229.55,395.29h0m0,0h0m0,0h0m0,0h0m0,0h0"/><path class="cls-13" d="M249.65,425.25H231.2a1.65,1.65,0,0,1-1.65-1.66v-28.3h0a1.65,1.65,0,0,1,.93-1.47,1.68,1.68,0,0,0-.1.55v28.3a1.66,1.66,0,0,0,1.66,1.66h18.44a1.6,1.6,0,0,0,.73-.17,1.67,1.67,0,0,1-1.19,1.07,1.55,1.55,0,0,1-.37,0"/><path class="cls-3" d="M238.12,422.33h-5a.83.83,0,0,1-.83-.83v-8.08a.83.83,0,0,1,.83-.83h5a.83.83,0,0,1,.83.83v8.08a.83.83,0,0,1-.83.83"/><path class="cls-11" d="M239,414.08a.83.83,0,0,0-.83-.83h-5a.83.83,0,0,0-.83.83v-.66a.83.83,0,0,1,.83-.83h5a.83.83,0,0,1,.83.83v.66"/><path class="cls-3" d="M247.6,406.5H233.25a1,1,0,0,1-1-1v-8.15a1,1,0,0,1,1-1H247.6a1,1,0,0,1,1,1v8.15a1,1,0,0,1-1,1"/><path class="cls-8" d="M248.57,400.14H232.28v-2.76a1,1,0,0,1,1-1H247.6a1,1,0,0,1,1,1v2.76"/><path class="cls-14" d="M234.62,397.51a.76.76,0,1,1-.76.76.76.76,0,0,1,.76-.76Z"/><path class="cls-6" d="M237.14,397.51a.76.76,0,1,1-.76.76.76.76,0,0,1,.76-.76Z"/><path class="cls-15" d="M248.57,410.41H232.28a.77.77,0,0,1-.76-.77.76.76,0,0,1,.76-.76h16.29a.76.76,0,0,1,.77.76.77.77,0,0,1-.77.77Z"/><path class="cls-14" d="M240.43,408.44a1.21,1.21,0,1,1-1.21,1.2,1.2,1.2,0,0,1,1.21-1.2Z"/><polyline class="cls-16" points="238.95 418.23 232.28 418.23 232.28 416.7 238.95 416.7 238.95 418.23"/><polyline class="cls-16" points="238.95 415.85 232.28 415.85 232.28 414.33 238.95 414.33 238.95 415.85"/><polyline class="cls-16" points="238.95 420.6 232.28 420.6 232.28 419.07 238.95 419.07 238.95 420.6"/><path class="cls-3" d="M247.74,422.33h-5a.83.83,0,0,1-.83-.83v-8.08a.83.83,0,0,1,.83-.83h5a.83.83,0,0,1,.83.83v8.08a.83.83,0,0,1-.83.83"/><polyline class="cls-17" points="248.57 418.23 248.57 418.23 248.57 416.7 248.57 416.7 248.57 418.23"/><polyline class="cls-16" points="248.57 418.23 241.9 418.23 241.9 416.7 248.57 416.7 248.57 418.23"/><polyline class="cls-17" points="248.57 415.85 248.57 415.85 248.57 414.33 248.57 414.33 248.57 415.85"/><polyline class="cls-16" points="248.57 415.85 241.9 415.85 241.9 414.33 248.57 414.33 248.57 415.85"/><polyline class="cls-17" points="248.57 420.6 248.57 420.6 248.57 419.07 248.57 419.07 248.57 420.6"/><polyline class="cls-16" points="248.57 420.6 241.9 420.6 241.9 419.07 248.57 419.07 248.57 420.6"/><path class="cls-14" d="M246.39,404.9h-4.93a.76.76,0,0,1,0-1.52h4.93a.76.76,0,1,1,0,1.52Z"/><path class="cls-13" d="M248.57,398.19h0v-.81a1,1,0,0,0-1-1H233.25a1,1,0,0,0-1,1h0a1,1,0,0,1,1-1H247.6a1,1,0,0,1,1,1v.81"/><path class="cls-11" d="M232.28,398.19v-.81a1,1,0,0,1,.3-.71,1,1,0,0,0-.3.71v.81"/><path class="cls-18" d="M248.57,398.19a1,1,0,0,0-1-1H233.25a1,1,0,0,0-1,1v-.79a1,1,0,0,1,1-1H247.6a1,1,0,0,1,1,1v.81"/><path class="cls-11" d="M248.57,414.08a.83.83,0,0,0-.83-.83h-5a.83.83,0,0,0-.83.83v-.66a.83.83,0,0,1,.83-.83h5a.83.83,0,0,1,.83.83v.66"/><path class="cls-2" d="M275.34,425.25H256.89a1.66,1.66,0,0,1-1.66-1.66v-28.3a1.66,1.66,0,0,1,1.66-1.66h18.45a1.66,1.66,0,0,1,1.66,1.66v28.3a1.66,1.66,0,0,1-1.66,1.66"/><path class="cls-10" d="M256.89,425.25a1.66,1.66,0,0,1-1.66-1.66h0a1.66,1.66,0,0,0,1.66,1.66h0"/><path class="cls-10" d="M275.34,425.25h0m0,0h0m0,0h0m0,0h0m0,0h0m-20.13-30h0m0,0h0m0,0h0m0,0h0m0,0h0m0,0v0m0,0h0m0,0h0m0,0h0m0,0h0m0,0h0m0,0h0m0,0h0"/><path class="cls-13" d="M275.34,425.25H256.89a1.66,1.66,0,0,1-1.66-1.66v-28.3h0v0h0a1.65,1.65,0,0,1,.92-1.41,1.67,1.67,0,0,0-.09.55v28.3a1.66,1.66,0,0,0,1.66,1.66h18.44a1.63,1.63,0,0,0,.73-.17,1.66,1.66,0,0,1-1.54,1.11h0"/><path class="cls-3" d="M263.81,422.33h-5a.83.83,0,0,1-.83-.83v-8.08a.83.83,0,0,1,.83-.83h5a.83.83,0,0,1,.83.83v8.08a.83.83,0,0,1-.83.83"/><path class="cls-11" d="M264.64,414.08a.83.83,0,0,0-.83-.83h-5a.83.83,0,0,0-.83.83v-.66a.83.83,0,0,1,.83-.83h5a.83.83,0,0,1,.83.83v.66"/><path class="cls-3" d="M273.29,406.5H258.94a1,1,0,0,1-1-1v-8.15a1,1,0,0,1,1-1h14.35a1,1,0,0,1,1,1v8.15a1,1,0,0,1-1,1"/><path class="cls-8" d="M274.26,400.14H258v-2.76a1,1,0,0,1,1-1h14.35a1,1,0,0,1,1,1v2.76"/><path class="cls-14" d="M260.3,397.51a.76.76,0,1,1-.76.76.76.76,0,0,1,.76-.76Z"/><path class="cls-15" d="M262.83,397.51a.76.76,0,1,1-.76.76.76.76,0,0,1,.76-.76Z"/><path class="cls-15" d="M274.26,410.41H258a.78.78,0,0,1-.77-.77.77.77,0,0,1,.77-.76h16.29a.77.77,0,0,1,.77.76.78.78,0,0,1-.77.77Z"/><path class="cls-14" d="M266.12,408.44a1.21,1.21,0,1,1-1.21,1.2,1.2,1.2,0,0,1,1.21-1.2Z"/><polyline class="cls-17" points="257.97 418.23 257.97 418.23 257.97 416.7 257.97 416.7 257.97 418.23"/><polyline class="cls-16" points="264.64 418.23 257.97 418.23 257.97 416.7 264.64 416.7 264.64 418.23"/><polyline class="cls-17" points="257.97 415.85 257.97 415.85 257.97 414.33 257.97 414.33 257.97 415.85"/><polyline class="cls-16" points="264.64 415.85 257.97 415.85 257.97 414.33 264.64 414.33 264.64 415.85"/><polyline class="cls-17" points="257.97 420.6 257.97 420.6 257.97 419.07 257.97 419.07 257.97 420.6"/><polyline class="cls-16" points="264.64 420.6 257.97 420.6 257.97 419.07 264.64 419.07 264.64 420.6"/><path class="cls-3" d="M273.43,422.33h-5a.83.83,0,0,1-.83-.83v-8.08a.83.83,0,0,1,.83-.83h5a.83.83,0,0,1,.83.83v8.08a.83.83,0,0,1-.83.83"/><polyline class="cls-17" points="267.59 418.23 267.59 418.23 267.59 416.7 267.59 418.23"/><polyline class="cls-16" points="274.26 418.23 267.59 418.23 267.59 416.7 274.26 416.7 274.26 418.23"/><polyline class="cls-17" points="267.59 415.85 267.59 415.85 267.59 414.33 267.59 415.85"/><polyline class="cls-16" points="274.26 415.85 267.59 415.85 267.59 414.33 274.26 414.33 274.26 415.85"/><polyline class="cls-17" points="267.59 420.6 267.59 420.6 267.59 419.07 267.59 420.6"/><polyline class="cls-16" points="274.26 420.6 267.59 420.6 267.59 419.07 274.26 419.07 274.26 420.6"/><path class="cls-14" d="M272.08,404.9h-4.93a.76.76,0,1,1,0-1.52h4.93a.76.76,0,1,1,0,1.52Z"/><path class="cls-13" d="M274.26,398.19h0v-.81a1,1,0,0,0-1-1H258.94a.94.94,0,0,0-.68.29.84.84,0,0,0-.18.23,1,1,0,0,1,.86-.52h14.35a1,1,0,0,1,1,1v.81"/><path class="cls-11" d="M258,397.38h0a1,1,0,0,1,.11-.46.84.84,0,0,1,.18-.23,1,1,0,0,0-.29.69"/><path class="cls-18" d="M274.26,398.19a1,1,0,0,0-1-1H258.94a1,1,0,0,0-1,1v-.81a1,1,0,0,1,1-1h14.35a1,1,0,0,1,1,1v.81"/><path class="cls-11" d="M274.26,414.08a.83.83,0,0,0-.83-.83h-5a.83.83,0,0,0-.83.83v-.66a.83.83,0,0,1,.83-.83h5a.83.83,0,0,1,.83.83v.66"/><polyline class="cls-2" points="239.72 124.84 267.9 153.02 266.82 154.1 238.64 125.92 239.72 124.84"/><polyline class="cls-2" points="266.82 124.84 267.9 125.92 239.72 154.1 238.64 153.02 266.82 124.84"/><path class="cls-8" d="M239.9,129.89h-9.05a.83.83,0,0,1-.83-.83v-12a.83.83,0,0,1,.83-.83h5.89l4,4v8.84a.84.84,0,0,1-.84.83"/><path class="cls-19" d="M236.64,121a.49.49,0,0,1-.48-.55l.58-4.19v3.17h0a.83.83,0,0,0,.83.83h3.17l-4,.73h-.09"/><path class="cls-2" d="M237.63,123.82h-4.51a.77.77,0,0,1,0-1.53h4.51a.77.77,0,0,1,0,1.53Z"/><path class="cls-2" d="M237.63,126.61h-4.51a.77.77,0,0,1-.76-.77.76.76,0,0,1,.76-.76h4.51a.76.76,0,0,1,.76.76.77.77,0,0,1-.76.77Z"/><path class="cls-20" d="M240.74,120.22h0m-3.17,0a.83.83,0,0,1-.83-.83v-3.17l4,4h-3.17"/><path class="cls-21" d="M240.74,120.22h-3.17a.83.83,0,0,1-.83-.83h0a.83.83,0,0,0,.83.83h3.17"/><path class="cls-15" d="M239.9,163.67h-9.05a.83.83,0,0,1-.83-.83v-12a.83.83,0,0,1,.83-.83h5.89l4,4v8.84a.84.84,0,0,1-.84.83"/><path class="cls-22" d="M236.64,154.74a.49.49,0,0,1-.48-.56l.58-4.18v3.16h0a.84.84,0,0,0,.83.84h3.17l-4,.73h-.09m4.1-.74h0"/><path class="cls-2" d="M237.63,157.6h-4.51a.77.77,0,0,1-.76-.77.76.76,0,0,1,.76-.76h4.51a.76.76,0,0,1,.76.76.77.77,0,0,1-.76.77Z"/><path class="cls-2" d="M237.63,160.38h-4.51a.76.76,0,0,1-.76-.76.77.77,0,0,1,.76-.77h4.51a.77.77,0,0,1,.76.77.76.76,0,0,1-.76.76Z"/><path class="cls-23" d="M240.74,154h0m-3.17,0a.84.84,0,0,1-.83-.84V150l4,4h-3.17"/><path class="cls-24" d="M240.74,154h-3.17a.84.84,0,0,1-.83-.84h0a.84.84,0,0,0,.83.84h3.17"/><path class="cls-3" d="M275.69,129.89h-9.05a.83.83,0,0,1-.83-.83v-12a.83.83,0,0,1,.83-.83h5.89l4,4v8.84a.84.84,0,0,1-.84.83"/><path class="cls-5" d="M272.43,121a.49.49,0,0,1-.48-.55l.58-4.19v3.17h0a.83.83,0,0,0,.83.83h3.16l-4,.73h-.09"/><path class="cls-14" d="M273.42,123.82h-4.51a.77.77,0,0,1,0-1.53h4.51a.77.77,0,0,1,0,1.53Z"/><path class="cls-14" d="M273.42,126.61h-4.51a.77.77,0,0,1-.76-.77.76.76,0,0,1,.76-.76h4.51a.76.76,0,0,1,.76.76.77.77,0,0,1-.76.77Z"/><path class="cls-25" d="M276.53,120.22h0m-3.17,0a.83.83,0,0,1-.83-.83v-3.17l4,4h-3.17"/><path class="cls-26" d="M276.52,120.22h-3.16a.83.83,0,0,1-.83-.83h0a.83.83,0,0,0,.83.83h3.16"/><path class="cls-6" d="M275.69,163.67h-9.05a.83.83,0,0,1-.83-.83v-12a.83.83,0,0,1,.83-.83h5.89l4,4v8.84a.84.84,0,0,1-.84.83"/><path class="cls-27" d="M272.43,154.74a.49.49,0,0,1-.48-.56l.58-4.18v3.16h0a.84.84,0,0,0,.83.84h3.16l-4,.73h-.09"/><path class="cls-2" d="M273.42,157.6h-4.51a.77.77,0,0,1-.76-.77.76.76,0,0,1,.76-.76h4.51a.76.76,0,0,1,.76.76.77.77,0,0,1-.76.77Z"/><path class="cls-2" d="M273.42,160.38h-4.51a.76.76,0,0,1-.76-.76.77.77,0,0,1,.76-.77h4.51a.77.77,0,0,1,.76.77.76.76,0,0,1-.76.76Z"/><path class="cls-28" d="M276.53,154h0m-3.17,0a.84.84,0,0,1-.83-.84V150l4,4h-3.17"/><path class="cls-29" d="M276.52,154h-3.16a.84.84,0,0,1-.83-.84h0a.84.84,0,0,0,.83.84h3.16"/><path class="cls-9" d="M261.23,134c-.21,0-.42,0-.62,0a7.56,7.56,0,0,0-14.85,2v.26a5.4,5.4,0,0,0-1.51-.21,5.62,5.62,0,0,0,0,11.24h17a6.67,6.67,0,0,0,0-13.33"/><path class="cls-4" d="M244.37,147.29h-.12a5.6,5.6,0,0,1-5.54-6.54,5.6,5.6,0,0,0,5.54,6.54h.12"/><path class="cls-30" d="M261.24,147.29h0m0,0h0m0,0h0m0,0h0m0,0h0"/><path class="cls-31" d="M261.23,147.29h-17a5.62,5.62,0,0,1-3.49-10,5.54,5.54,0,0,0-1.22,3.49,5.61,5.61,0,0,0,5.62,5.62h17a6.63,6.63,0,0,0,4.23-1.52,6.62,6.62,0,0,1-5.11,2.43h0"/><path class="cls-2" d="M253.73,144.68a.76.76,0,0,1-.76-.76v-7.51a.76.76,0,1,1,1.52,0v7.51a.76.76,0,0,1-.76.76Z"/><path class="cls-2" d="M251.68,144.68a.77.77,0,0,1-.77-.76v-3.37l-1.12-1.15a.76.76,0,1,1,1.09-1.07l1.34,1.37a.79.79,0,0,1,.22.54v3.68a.76.76,0,0,1-.76.76Z"/><path class="cls-2" d="M255.78,144.68a.76.76,0,0,1-.76-.76v-2.46a.75.75,0,0,1,.22-.53l1.34-1.38a.76.76,0,0,1,1.08,0,.77.77,0,0,1,0,1.08l-1.13,1.15v2.15a.76.76,0,0,1-.77.76Z"/><path class="cls-7" d="M253.73,134.73a.46.46,0,1,0,.46.46.47.47,0,0,0-.46-.46Zm0,2.45a2,2,0,1,1,2-2,2,2,0,0,1-2,2Z"/><path class="cls-8" d="M249.47,137.54a.46.46,0,0,0-.46.46.46.46,0,1,0,.92,0,.46.46,0,0,0-.46-.46Zm0,2.44a2,2,0,1,1,2-2,2,2,0,0,1-2,2Z"/><path class="cls-6" d="M258,138.76a.46.46,0,0,0,0,.92.46.46,0,0,0,0-.92Zm0,2.45a2,2,0,1,1,2-2,2,2,0,0,1-2,2Z"/><rect class="cls-14" x="391.51" y="256.01" width="14.69" height="4.18" transform="translate(797.71 516.2) rotate(180)"/><rect class="cls-32" x="391.51" y="258.79" width="14.69" height="1.4" transform="translate(797.71 518.98) rotate(180)"/><path class="cls-14" d="M391.38,260.19h14.95a3.1,3.1,0,0,1,3.18,3h-21.3A3.1,3.1,0,0,1,391.38,260.19Z"/><path class="cls-32" d="M378.38,225.32h41a2.86,2.86,0,0,1,2.86,2.86v25a2.86,2.86,0,0,1-2.86,2.86h-41a2.87,2.87,0,0,1-2.87-2.87v-25A2.86,2.86,0,0,1,378.38,225.32Z" transform="translate(797.79 481.33) rotate(180)"/><path class="cls-33" d="M378.87,225.73h40a2.87,2.87,0,0,1,2.87,2.87v24.14a2.86,2.86,0,0,1-2.86,2.86h-40a2.87,2.87,0,0,1-2.87-2.87V228.59A2.86,2.86,0,0,1,378.87,225.73Z" transform="translate(797.79 481.33) rotate(180)"/><rect class="cls-34" x="378.01" y="228.19" width="41.77" height="24.95" rx="2.5" transform="translate(797.79 481.33) rotate(180)"/><polyline class="cls-35" points="404.98 236.56 409.35 239.11 418.64 239.11"/><polyline class="cls-35" points="405.08 244.65 409.28 242.59 418.34 242.59"/><line class="cls-35" x1="406.21" y1="240.84" x2="418.93" y2="240.84"/><polyline class="cls-35" points="392.64 236.56 388.26 239.11 378.98 239.11"/><polyline class="cls-35" points="392.53 244.65 388.34 242.59 379.28 242.59"/><line class="cls-35" x1="391.4" y1="240.84" x2="378.69" y2="240.84"/><polyline class="cls-35" points="400.87 234.87 402.49 232.06 407.75 232.06"/><path class="cls-33" d="M408.87,232.07a.92.92,0,1,1-.92-.92A.92.92,0,0,1,408.87,232.07Z"/><path class="cls-33" d="M411.29,249.8a.92.92,0,1,1-.91-.91A.92.92,0,0,1,411.29,249.8Z"/><polyline class="cls-35" points="402.49 246.49 404.67 249.8 409.94 249.8"/><path class="cls-33" d="M411.29,234.2a.92.92,0,1,1-.91-.92A.91.91,0,0,1,411.29,234.2Z"/><line class="cls-35" x1="405.26" y1="236.51" x2="409.94" y2="234.49"/><path class="cls-33" d="M410.17,246.85a.92.92,0,1,1-.92-.91A.92.92,0,0,1,410.17,246.85Z"/><line class="cls-35" x1="405.08" y1="244.65" x2="409.25" y2="246.85"/><line class="cls-35" x1="398.89" y1="230.77" x2="398.89" y2="250.75"/><path class="cls-33" d="M399.81,230.66a.92.92,0,1,1-.92-.92A.92.92,0,0,1,399.81,230.66Z"/><path class="cls-33" d="M399.81,250.72a.92.92,0,1,1-.92-.92A.92.92,0,0,1,399.81,250.72Z"/><polyline class="cls-35" points="397.13 234.87 395.51 232.06 390.25 232.06"/><path class="cls-33" d="M389.13,232.07a.92.92,0,1,0,.92-.92A.92.92,0,0,0,389.13,232.07Z"/><path class="cls-33" d="M386.71,249.8a.92.92,0,1,0,.91-.91A.92.92,0,0,0,386.71,249.8Z"/><polyline class="cls-35" points="395.51 246.49 393.33 249.8 388.06 249.8"/><path class="cls-33" d="M386.71,234.2a.92.92,0,1,0,.91-.92A.91.91,0,0,0,386.71,234.2Z"/><line class="cls-35" x1="392.74" y1="236.51" x2="388.06" y2="234.49"/><path class="cls-33" d="M387.83,246.85a.92.92,0,1,0,.92-.91A.92.92,0,0,0,387.83,246.85Z"/><line class="cls-35" x1="392.92" y1="244.65" x2="388.75" y2="246.85"/><path class="cls-33" d="M407.23,240.37l0,0a2.58,2.58,0,0,0,.37-1.07,2.63,2.63,0,0,0-.56-1.94.64.64,0,0,0-.32-.2l0-.09a.55.55,0,0,0,0-.38,3.06,3.06,0,0,0-2.84-2.37,3.12,3.12,0,0,0-.74.06l-.13,0-.1.06a.52.52,0,0,0-.14-.19,3.37,3.37,0,0,0-1.82-.79,3.42,3.42,0,0,0-2.1.44l-.06,0-.05,0a3.42,3.42,0,0,0-2.1-.44,3.37,3.37,0,0,0-1.82.79.7.7,0,0,0-.15.19l-.09-.06-.13,0a3.12,3.12,0,0,0-.74-.06,3.06,3.06,0,0,0-2.84,2.37.68.68,0,0,0,0,.4l0,.07a.6.6,0,0,0-.32.2,2.63,2.63,0,0,0-.56,1.94,2.58,2.58,0,0,0,.37,1.07l0,0a.52.52,0,0,0-.2.24,2.59,2.59,0,0,0-.18,1.29,2.65,2.65,0,0,0,1.09,1.83,1.94,1.94,0,0,0,0,.68,2,2,0,0,0,.21.73,1.91,1.91,0,0,0,1.54,1.92.43.43,0,0,0,.16,0,.58.58,0,0,0,.18.23,2.21,2.21,0,0,0,1.32.45,2.17,2.17,0,0,0,1.65.76h.24a2.12,2.12,0,0,0,1.64-1.11.57.57,0,0,0,.07-.38l.1,0a1.94,1.94,0,0,0,.54-.49,2.13,2.13,0,0,0,.55.49l.1,0a.63.63,0,0,0,.06.38,2.15,2.15,0,0,0,1.64,1.11h.25a2.13,2.13,0,0,0,1.64-.76,2.2,2.2,0,0,0,1.33-.45.58.58,0,0,0,.18-.23.43.43,0,0,0,.16,0,1.89,1.89,0,0,0,1.53-1.92,2.06,2.06,0,0,0,.22-.73,1.94,1.94,0,0,0,0-.68,2.65,2.65,0,0,0,1.09-1.83,2.71,2.71,0,0,0-.18-1.29A.59.59,0,0,0,407.23,240.37Z"/><path class="cls-36" d="M398.55,244.78a2.42,2.42,0,0,1-2.18,0c-.4-.22,0-.82.35-.61a1.72,1.72,0,0,0,1.83-.17v-1.6c-.51.17-1,.48-1.56.74a3.25,3.25,0,0,1-2.74-.18c-1-.52-2.13-2.76-3.35-2.1a2.1,2.1,0,0,0-.14,1,2,2,0,0,0,1.21,1.63,1.56,1.56,0,0,0-.15.88,1.53,1.53,0,0,0,.23.67.13.13,0,0,1,0,.06,1.33,1.33,0,0,0,1.06,1.42,1.9,1.9,0,0,1,.31-1.11,1.82,1.82,0,0,1-.25-2c.15-.33.69-.14.54.2a1.15,1.15,0,0,0,.32,1.52.28.28,0,0,1,0,.45,1.34,1.34,0,0,0-.34,1.27,1.52,1.52,0,0,0,1.12.31l.13,0a1.55,1.55,0,0,0,2.73,0,3.18,3.18,0,0,1-1.66-1.44c-.26-.38.35-.73.6-.36a2.14,2.14,0,0,0,1.44,1.15,1.41,1.41,0,0,0,.5-.5Z"/><path class="cls-36" d="M398.55,239.89a2.19,2.19,0,0,1-.73.08.29.29,0,0,1,0-.57,1.66,1.66,0,0,0,.67-.11h0v-4.86a2.8,2.8,0,0,0-1.74-.37,2.85,2.85,0,0,0-1.51.66,3.86,3.86,0,0,1,.93,1.86c.08.44-.6.63-.68.18a2.68,2.68,0,0,0-1.12-1.82,2.36,2.36,0,0,0-.6-.05,2.47,2.47,0,0,0-2.29,1.91c.39.85.79,1.73,1.76,2,1.5.43,2.57-1.36,4-.53a.35.35,0,0,1-.35.6c-.79-.45-1.84.52-2.67.66a3,3,0,0,1-1.79-.29,3.11,3.11,0,0,1-1.3-1.53,2,2,0,0,0-.44,1.5,2.15,2.15,0,0,0,.29.84c1.06-.21,2,.84,2.82,1.65a2.65,2.65,0,0,0,3.44.47,4.64,4.64,0,0,1,1.25-.54Z"/><path class="cls-37" d="M391,240a2.15,2.15,0,0,1-.29-.84,2,2,0,0,1,.44-1.5,3.11,3.11,0,0,0,1.3,1.53l.32.14a5.28,5.28,0,0,0-.31,1.08A1.91,1.91,0,0,0,391,240Z"/><path class="cls-37" d="M395.55,236.75h0a4.68,4.68,0,0,0-2.43,2,3.25,3.25,0,0,1-1.58-1.94,2.47,2.47,0,0,1,2.29-1.91,2.36,2.36,0,0,1,.6.05A2.68,2.68,0,0,1,395.55,236.75Z"/><path class="cls-37" d="M398.55,234.42a2.8,2.8,0,0,0-1.74-.37,2.85,2.85,0,0,0-1.51.66,3.83,3.83,0,0,1,.92,1.83,9.31,9.31,0,0,1,2.33-.28Z"/><path class="cls-37" d="M392,245.07a.13.13,0,0,0,0-.06,1.53,1.53,0,0,1-.23-.67,1.56,1.56,0,0,1,.15-.88,2,2,0,0,1-1.21-1.63,2.1,2.1,0,0,1,.14-1c.51-.28,1,0,1.5.36a13.63,13.63,0,0,0,.72,5,2.46,2.46,0,0,0,0,.28A1.33,1.33,0,0,1,392,245.07Z"/><path class="cls-36" d="M399.24,244.78a2.42,2.42,0,0,0,2.18,0c.4-.22,0-.82-.35-.61a1.72,1.72,0,0,1-1.83-.17v-1.6c.51.17,1,.48,1.56.74a3.25,3.25,0,0,0,2.74-.18c1-.52,2.13-2.76,3.35-2.1a2.1,2.1,0,0,1,.13,1,2,2,0,0,1-1.2,1.63,1.56,1.56,0,0,1,.15.88,1.67,1.67,0,0,1-.23.67v.06a1.33,1.33,0,0,1-1.05,1.42,1.83,1.83,0,0,0-.32-1.11,1.8,1.8,0,0,0,.26-2c-.15-.33-.69-.14-.54.2a1.15,1.15,0,0,1-.32,1.52.28.28,0,0,0,0,.45,1.34,1.34,0,0,1,.34,1.27,1.52,1.52,0,0,1-1.12.31l-.13,0a1.57,1.57,0,0,1-1.54.79,1.54,1.54,0,0,1-1.19-.81,3.18,3.18,0,0,0,1.66-1.44c.26-.38-.35-.73-.6-.36a2.14,2.14,0,0,1-1.44,1.15,1.33,1.33,0,0,1-.5-.5Z"/><path class="cls-36" d="M399.24,239.89a2.19,2.19,0,0,0,.73.08.29.29,0,0,0,0-.57,1.66,1.66,0,0,1-.67-.11h0v-4.86a2.8,2.8,0,0,1,1.74-.37,2.85,2.85,0,0,1,1.51.66,3.86,3.86,0,0,0-.93,1.86c-.08.44.6.63.68.18a2.68,2.68,0,0,1,1.12-1.82,2.36,2.36,0,0,1,.6-.05,2.47,2.47,0,0,1,2.29,1.91c-.39.85-.79,1.73-1.76,2-1.5.43-2.57-1.36-4-.53a.35.35,0,0,0,.35.6c.79-.45,1.84.52,2.67.66a3,3,0,0,0,1.79-.29,3.11,3.11,0,0,0,1.3-1.53,2,2,0,0,1,.44,1.5,2.15,2.15,0,0,1-.29.84c-1.06-.21-2,.84-2.82,1.65a2.65,2.65,0,0,1-3.44.47,4.64,4.64,0,0,0-1.25-.54Z"/><path class="cls-37" d="M406.75,240a2.15,2.15,0,0,0,.29-.84,2,2,0,0,0-.44-1.5,3.11,3.11,0,0,1-1.3,1.53l-.32.14a5.28,5.28,0,0,1,.31,1.08A1.91,1.91,0,0,1,406.75,240Z"/><path class="cls-37" d="M402.24,236.75h0a4.68,4.68,0,0,1,2.43,2,3.25,3.25,0,0,0,1.58-1.94,2.47,2.47,0,0,0-2.29-1.91,2.36,2.36,0,0,0-.6.05A2.68,2.68,0,0,0,402.24,236.75Z"/><path class="cls-37" d="M399.24,234.42a2.8,2.8,0,0,1,1.74-.37,2.85,2.85,0,0,1,1.51.66,4,4,0,0,0-.93,1.83,9.18,9.18,0,0,0-2.32-.28Z"/><path class="cls-37" d="M405.74,245.07V245a1.67,1.67,0,0,0,.23-.67,1.56,1.56,0,0,0-.15-.88,2,2,0,0,0,1.2-1.63,2.1,2.1,0,0,0-.13-1c-.51-.28-1,0-1.5.36a13.63,13.63,0,0,1-.72,5,2.46,2.46,0,0,1,0,.28A1.33,1.33,0,0,0,405.74,245.07Z"/><rect class="cls-33" x="410.74" y="235.93" width="14.27" height="2.6"/><path class="cls-37" d="M412.8,237.25a.42.42,0,1,1-.42-.42A.42.42,0,0,1,412.8,237.25Z"/><path class="cls-37" d="M414.46,237.25a.42.42,0,0,1-.42.42.42.42,0,1,1,0-.84A.42.42,0,0,1,414.46,237.25Z"/><path class="cls-37" d="M416.13,237.25a.43.43,0,1,1-.43-.42A.42.42,0,0,1,416.13,237.25Z"/><rect class="cls-38" x="410.74" y="238.53" width="14.27" height="7.06"/><rect class="cls-33" x="411.98" y="240.45" width="3.29" height="0.6"/><rect class="cls-14" x="416.08" y="240.45" width="3.71" height="0.6"/><rect class="cls-14" x="416.08" y="241.78" width="5.28" height="0.6"/><rect class="cls-37" x="420.6" y="240.45" width="1.9" height="0.6"/><rect class="cls-14" x="411.98" y="243.07" width="3.29" height="0.6"/><rect class="cls-37" x="416.08" y="243.07" width="3.11" height="0.6"/><rect class="cls-14" x="419.79" y="243.07" width="3.88" height="0.6"/><rect class="cls-33" x="411.98" y="241.78" width="3.29" height="0.6"/><rect class="cls-38" x="372.91" y="230.8" width="20.69" height="26.13"/><rect class="cls-33" x="372.91" y="230.8" width="20.69" height="2.6"/><rect class="cls-37" x="374.23" y="235.23" width="8.6" height="0.6"/><rect class="cls-33" x="374.23" y="236.56" width="3.24" height="0.6"/><rect class="cls-14" x="378.26" y="236.56" width="5.08" height="0.6"/><rect class="cls-14" x="380.39" y="237.89" width="4.81" height="0.6"/><rect class="cls-14" x="384.17" y="236.56" width="2.36" height="0.6"/><rect class="cls-14" x="387.3" y="236.56" width="3.24" height="0.6"/><rect class="cls-33" x="374.23" y="237.89" width="5.56" height="0.6"/><rect class="cls-33" x="374.23" y="250.16" width="3.24" height="0.6"/><rect class="cls-14" x="378.26" y="250.16" width="5.08" height="0.6"/><rect class="cls-14" x="380.39" y="251.49" width="2.06" height="0.6"/><rect class="cls-14" x="384.17" y="250.16" width="2.36" height="0.6"/><rect class="cls-37" x="374.23" y="251.49" width="5.56" height="0.6"/><rect class="cls-14" x="375.94" y="240.15" width="3.24" height="0.6"/><rect class="cls-37" x="379.97" y="240.15" width="3.06" height="0.6"/><rect class="cls-14" x="382.1" y="241.48" width="2.72" height="0.6"/><rect class="cls-14" x="385.54" y="241.48" width="4.49" height="0.6"/><rect class="cls-14" x="383.63" y="240.15" width="4.61" height="0.6"/><rect class="cls-33" x="375.94" y="242.77" width="3.24" height="0.6"/><rect class="cls-14" x="379.97" y="242.77" width="3.06" height="0.6"/><rect class="cls-14" x="383.63" y="242.77" width="4.61" height="0.6"/><rect class="cls-14" x="389.01" y="240.15" width="3.24" height="0.6"/><rect class="cls-33" x="375.94" y="241.48" width="5.56" height="0.6"/><rect class="cls-33" x="375.94" y="253.2" width="3.24" height="0.6"/><rect class="cls-14" x="379.97" y="253.2" width="3.66" height="0.6"/><rect class="cls-14" x="379.97" y="254.53" width="4.85" height="0.6"/><rect class="cls-14" x="385.54" y="254.53" width="2.05" height="0.6"/><rect class="cls-37" x="384.42" y="253.2" width="6.06" height="0.6"/><rect class="cls-33" x="375.94" y="254.53" width="3.24" height="0.6"/><rect class="cls-14" x="382.1" y="248.19" width="2.72" height="0.6"/><rect class="cls-14" x="385.54" y="248.19" width="4.49" height="0.6"/><rect class="cls-33" x="375.94" y="246.69" width="3.24" height="0.6"/><rect class="cls-14" x="379.97" y="246.69" width="3.06" height="0.6"/><rect class="cls-37" x="383.63" y="246.69" width="4.61" height="0.6"/><rect class="cls-33" x="375.94" y="248.19" width="5.56" height="0.6"/><rect class="cls-14" x="384.15" y="244.71" width="2.72" height="0.6"/><rect class="cls-37" x="377.99" y="244.71" width="5.56" height="0.6"/><path class="cls-37" d="M375.07,232.12a.42.42,0,1,1-.84,0,.42.42,0,1,1,.84,0Z"/><path class="cls-37" d="M376.73,232.12a.41.41,0,0,1-.42.42.42.42,0,0,1-.42-.42.42.42,0,0,1,.42-.42A.42.42,0,0,1,376.73,232.12Z"/><path class="cls-37" d="M378.4,232.12a.43.43,0,1,1-.43-.42A.42.42,0,0,1,378.4,232.12Z"/><rect class="cls-39" x="89.86" y="444.14" width="40.44" height="25.2" rx="1.81"/><rect class="cls-40" x="91.37" y="445.65" width="37.42" height="21.88" rx="1.81"/><rect class="cls-40" x="96.41" y="442.76" width="4.05" height="1.44" rx="0.38"/><rect class="cls-40" x="96.41" y="441.05" width="4.05" height="1.44" rx="0.38"/><rect class="cls-40" x="96.41" y="439.35" width="4.05" height="1.44" rx="0.38"/><rect class="cls-40" x="119.69" y="442.76" width="4.05" height="1.44" rx="0.38"/><rect class="cls-40" x="119.69" y="441.05" width="4.05" height="1.44" rx="0.38"/><rect class="cls-40" x="119.69" y="439.35" width="4.05" height="1.44" rx="0.38"/><path class="cls-41" d="M87.8,466.69h44.56a.78.78,0,0,1,.78.78v3.44a.77.77,0,0,1-.77.77H87.8a.78.78,0,0,1-.78-.78v-3.44A.78.78,0,0,1,87.8,466.69Z"/><path class="cls-42" d="M95,452.2v-1.53h6.18v1.53Z"/><path class="cls-42" d="M121.5,452H119v-1.12h2.49v-2.55h1.13v2.55h2.5V452h-2.5v2.54H121.5Z"/><polygon class="cls-42" points="107.85 463.79 107.85 463.79 111.51 457.13 105.71 457.13 110.82 448.33 113.04 448.33 108.53 456.25 114.45 456.25 107.85 463.79"/><rect class="cls-43" x="661.04" y="227.54" width="60.4" height="34.43"/><polygon class="cls-44" points="655.16 218.7 655.16 220.1 659.59 220.1 659.59 269.82 661.04 269.82 661.04 220.1 661.04 218.7 655.16 218.7"/><rect class="cls-45" x="661.04" y="230.33" width="1.13" height="13.66"/><rect class="cls-45" x="662.17" y="232.38" width="6.52" height="9.56"/><rect class="cls-46" x="656.65" y="248.84" width="2.94" height="9.79"/><rect class="cls-46" x="658.1" y="259.4" width="1.49" height="1.4"/><rect class="cls-46" x="658.1" y="246.79" width="1.49" height="1.4"/><rect class="cls-46" x="656.65" y="232.83" width="2.94" height="8.66"/><rect class="cls-46" x="658.1" y="241.94" width="1.49" height="1.4"/><rect class="cls-46" x="658.1" y="230.98" width="1.49" height="1.4"/><rect class="cls-45" x="661.04" y="246.04" width="1.13" height="15.39"/><rect class="cls-45" x="662.17" y="248.27" width="3.88" height="10.93"/><rect class="cls-46" x="664.87" y="248.84" width="1.18" height="0.43"/><rect class="cls-46" x="664.87" y="249.69" width="1.18" height="0.43"/><rect class="cls-46" x="664.87" y="250.54" width="1.18" height="0.43"/><rect class="cls-46" x="664.87" y="251.39" width="1.18" height="0.43"/><rect class="cls-46" x="664.87" y="252.24" width="1.18" height="0.43"/><rect class="cls-46" x="664.87" y="253.09" width="1.18" height="0.43"/><rect class="cls-46" x="664.87" y="253.94" width="1.18" height="0.43"/><rect class="cls-46" x="664.87" y="254.8" width="1.18" height="0.43"/><rect class="cls-46" x="664.87" y="255.65" width="1.18" height="0.43"/><rect class="cls-46" x="664.87" y="256.5" width="1.18" height="0.43"/><rect class="cls-46" x="664.87" y="257.35" width="1.18" height="0.43"/><rect class="cls-46" x="664.87" y="258.2" width="1.18" height="0.43"/><rect class="cls-43" x="661.04" y="261.93" width="2.12" height="3.55"/><rect class="cls-43" x="661.04" y="223.99" width="2.12" height="3.55"/><rect class="cls-47" x="680.21" y="261.97" width="10.41" height="3.51"/><rect class="cls-47" x="691.23" y="261.97" width="10.41" height="3.51"/><rect class="cls-47" x="702.25" y="261.97" width="8.57" height="3.51"/><rect class="cls-48" x="680.21" y="261.97" width="0.31" height="3.51"/><rect class="cls-48" x="681.13" y="261.97" width="0.31" height="3.51"/><rect class="cls-48" x="682.05" y="261.97" width="0.31" height="3.51"/><rect class="cls-48" x="682.97" y="261.97" width="0.31" height="3.51"/><rect class="cls-48" x="683.88" y="261.97" width="0.31" height="3.51"/><rect class="cls-48" x="684.8" y="261.97" width="0.31" height="3.51"/><rect class="cls-48" x="685.72" y="261.97" width="0.31" height="3.51"/><rect class="cls-48" x="686.64" y="261.97" width="0.31" height="3.51"/><rect class="cls-48" x="687.56" y="261.97" width="0.31" height="3.51"/><rect class="cls-48" x="688.47" y="261.97" width="0.31" height="3.51"/><rect class="cls-48" x="689.39" y="261.97" width="0.31" height="3.51"/><rect class="cls-48" x="690.31" y="261.97" width="0.31" height="3.51"/><rect class="cls-48" x="691.23" y="261.97" width="0.31" height="3.51"/><rect class="cls-48" x="692.15" y="261.97" width="0.31" height="3.51"/><rect class="cls-48" x="693.07" y="261.97" width="0.31" height="3.51"/><rect class="cls-48" x="693.98" y="261.97" width="0.31" height="3.51"/><rect class="cls-48" x="694.9" y="261.97" width="0.31" height="3.51"/><rect class="cls-48" x="695.82" y="261.97" width="0.31" height="3.51"/><rect class="cls-48" x="696.74" y="261.97" width="0.31" height="3.51"/><rect class="cls-48" x="697.66" y="261.97" width="0.31" height="3.51"/><rect class="cls-48" x="698.57" y="261.97" width="0.31" height="3.51"/><rect class="cls-48" x="699.49" y="261.97" width="0.31" height="3.51"/><rect class="cls-48" x="700.41" y="261.97" width="0.31" height="3.51"/><rect class="cls-48" x="701.33" y="261.97" width="0.31" height="3.51"/><rect class="cls-48" x="702.25" y="261.97" width="0.31" height="3.51"/><rect class="cls-48" x="703.16" y="261.97" width="0.31" height="3.51"/><rect class="cls-48" x="704.08" y="261.97" width="0.31" height="3.51"/><rect class="cls-48" x="705" y="261.97" width="0.31" height="3.51"/><rect class="cls-48" x="705.92" y="261.97" width="0.31" height="3.51"/><rect class="cls-48" x="706.84" y="261.97" width="0.31" height="3.51"/><rect class="cls-48" x="707.76" y="261.97" width="0.31" height="3.51"/><rect class="cls-48" x="708.68" y="261.97" width="0.31" height="3.51"/><rect class="cls-48" x="709.6" y="261.97" width="0.31" height="3.51"/><rect class="cls-48" x="710.52" y="261.97" width="0.31" height="3.51"/><rect class="cls-47" x="673.2" y="261.97" width="3.06" height="3.51"/><rect class="cls-48" x="673.2" y="261.97" width="0.31" height="3.51"/><rect class="cls-48" x="674.12" y="261.97" width="0.31" height="3.51"/><rect class="cls-48" x="675.04" y="261.97" width="0.31" height="3.51"/><rect class="cls-48" x="675.95" y="261.97" width="0.31" height="3.51"/><path class="cls-47" d="M713.94,262.9V262h-2.25v3.51h4.9v-1.76h-1.83A.82.82,0,0,1,713.94,262.9Z"/><rect class="cls-45" x="690.62" y="241.49" width="20.21" height="18.61"/><rect class="cls-45" x="711.9" y="255.93" width="8.08" height="4.17"/><rect class="cls-45" x="711.9" y="246.18" width="8.08" height="4.17"/><rect class="cls-45" x="688.89" y="234.31" width="8.08" height="4.17" transform="translate(929.33 -456.53) rotate(90)"/><rect class="cls-45" x="698.64" y="234.31" width="8.08" height="4.17" transform="translate(939.08 -466.28) rotate(90)"/><path class="cls-44" d="M689.14,243.12a1.64,1.64,0,1,1-1.63-1.63A1.64,1.64,0,0,1,689.14,243.12Z"/><path class="cls-49" d="M688.64,243.12a1.14,1.14,0,1,1-1.13-1.13A1.14,1.14,0,0,1,688.64,243.12Z"/><path class="cls-44" d="M684.84,243.12a1.64,1.64,0,1,1-1.63-1.63A1.64,1.64,0,0,1,684.84,243.12Z"/><path class="cls-49" d="M684.35,243.12a1.14,1.14,0,1,1-1.14-1.13A1.14,1.14,0,0,1,684.35,243.12Z"/><circle class="cls-44" cx="687.51" cy="238.79" r="1.63"/><circle class="cls-49" cx="687.51" cy="238.79" r="1.14"/><path class="cls-49" d="M688.24,259.81h0a.68.68,0,0,1-.68-.69v-1.73a.67.67,0,0,1,.68-.68h0a.68.68,0,0,1,.69.68v1.73A.69.69,0,0,1,688.24,259.81Z"/><path class="cls-49" d="M676.06,259.08a.72.72,0,1,1-.72-.72A.73.73,0,0,1,676.06,259.08Z"/><circle class="cls-49" cx="676.98" cy="259.08" r="0.72"/><path class="cls-49" d="M712.91,231.82a.72.72,0,1,1-1.44,0,.72.72,0,1,1,1.44,0Z"/><circle class="cls-49" cx="714.56" cy="233.26" r="0.72"/><circle class="cls-49" cx="685.23" cy="257.43" r="0.72"/><circle class="cls-49" cx="683.57" cy="257.43" r="0.72"/><path class="cls-49" d="M685.16,259.08a.72.72,0,1,1-.72-.72A.73.73,0,0,1,685.16,259.08Z"/><rect class="cls-45" x="674.42" y="239.76" width="1.53" height="1.73"/><rect class="cls-45" x="683.82" y="239.28" width="1.53" height="1.73"/><rect class="cls-45" x="681.57" y="238.03" width="1.53" height="0.87"/><rect class="cls-45" x="673.96" y="251.38" width="1.53" height="0.87" transform="translate(926.55 -422.91) rotate(90)"/><path class="cls-3" d="M535.17,261.57h-3a.77.77,0,0,1-.77-.76.78.78,0,0,1,.77-.77h2.66l6.95-7a.76.76,0,0,1,1.08,1.08l-7.18,7.18a.77.77,0,0,1-.54.22Z"/><path class="cls-8" d="M527.25,254.45h-2.8a.76.76,0,0,1,0-1.52h2.48l2.56-2.56a.74.74,0,0,1,.54-.23h2.54l3.69-3.69a.76.76,0,0,1,1.08,1.08l-3.92,3.91a.73.73,0,0,1-.54.23h-2.53l-2.56,2.56a.79.79,0,0,1-.54.22Z"/><path class="cls-3" d="M543.53,235.65a.75.75,0,0,1-.54-.22l-7-7h-2.65a.76.76,0,1,1,0-1.52h3a.77.77,0,0,1,.54.22l7.18,7.18a.76.76,0,0,1-.54,1.3Z"/><path class="cls-8" d="M539.55,244.19A.75.75,0,0,1,539,244l-3.69-3.7h-2.54a.77.77,0,0,1-.54-.22l-2.56-2.56H527.2a.77.77,0,0,1,0-1.53H530a.72.72,0,0,1,.53.23l2.57,2.56h2.53a.77.77,0,0,1,.54.22l3.92,3.92a.76.76,0,0,1-.54,1.3Z"/><path class="cls-8" d="M562.8,251.13h-4.2a.79.79,0,0,1-.54-.22l-4.7-4.71a.76.76,0,0,1,1.08-1.08l4.48,4.48h3.88a.77.77,0,1,1,0,1.53"/><path class="cls-3" d="M560,261.43h-2.79a.77.77,0,0,1-.54-.22l-2.56-2.56h-2.54a.74.74,0,0,1-.54-.23l-3.92-3.91a.78.78,0,0,1,0-1.08.76.76,0,0,1,1.08,0l3.7,3.69h2.53a.73.73,0,0,1,.54.23l2.56,2.56H560a.76.76,0,0,1,0,1.52"/><path class="cls-8" d="M553.8,242.45a.73.73,0,0,1-.54-.22.76.76,0,0,1,0-1.08l4.7-4.71a.79.79,0,0,1,.54-.22h4.2a.77.77,0,0,1,0,1.53h-3.88l-4.48,4.48a.76.76,0,0,1-.54.22"/><path class="cls-3" d="M547.94,236.15a.75.75,0,0,1-.54-.22.76.76,0,0,1,0-1.08l3.92-3.92a.76.76,0,0,1,.54-.22h2.53l2.56-2.56a.76.76,0,0,1,.54-.23h2.8a.77.77,0,0,1,.76.77.76.76,0,0,1-.76.76h-2.48L555.25,232a.74.74,0,0,1-.54.23h-2.54l-3.69,3.69a.75.75,0,0,1-.54.22"/><path class="cls-7" d="M531.17,225.44a2.27,2.27,0,1,1-2.28,2.27,2.26,2.26,0,0,1,2.28-2.27"/><path class="cls-50" d="M531.17,230a2.28,2.28,0,0,1-1.94-1.09,2.28,2.28,0,0,0,3.34.6,2.29,2.29,0,0,1-1.4.49"/><path class="cls-51" d="M531.17,230a2.27,2.27,0,0,1-1.43-4,2.28,2.28,0,0,0,3.2,3.2,2.1,2.1,0,0,1-.37.36,2.28,2.28,0,0,1-1.4.48"/><path class="cls-7" d="M524.93,234.45a2.28,2.28,0,1,1-2.28,2.27,2.27,2.27,0,0,1,2.28-2.27"/><path class="cls-50" d="M524.93,239a2.28,2.28,0,0,1-2.28-2.28,2.14,2.14,0,0,1,.17-.84,2.14,2.14,0,0,0-.17.84,2.28,2.28,0,0,0,2.28,2.28,2.24,2.24,0,0,0,.52-.06,2.24,2.24,0,0,1-.52.06"/><path class="cls-51" d="M524.93,239a2.28,2.28,0,0,1-2.28-2.28,2.14,2.14,0,0,1,.17-.84,2.25,2.25,0,0,1,.68-.93,2.3,2.3,0,0,0-.5,1.43,2.27,2.27,0,0,0,2.27,2.27,2.24,2.24,0,0,0,1.43-.5,2.27,2.27,0,0,1-1.25.79,2.24,2.24,0,0,1-.52.06"/><path class="cls-7" d="M522.18,251.42a2.28,2.28,0,1,1-2.28,2.27,2.27,2.27,0,0,1,2.28-2.27"/><path class="cls-50" d="M519.9,253.69h0m0,0a2.12,2.12,0,0,1,.18-.87,2.12,2.12,0,0,0-.18.87"/><path class="cls-51" d="M522.18,256a2.28,2.28,0,0,1-2.28-2.28h0a2.12,2.12,0,0,1,.18-.87,2.29,2.29,0,0,1,.67-.9,2.28,2.28,0,0,0,3.2,3.2,2.31,2.31,0,0,1-1.77.85"/><path class="cls-7" d="M529.92,258.53a2.28,2.28,0,1,1-2.27,2.28,2.28,2.28,0,0,1,2.27-2.28"/><path class="cls-50" d="M529.92,263.08a2.28,2.28,0,0,1-2-1.19,2.28,2.28,0,0,0,2,1.19,2.24,2.24,0,0,0,1.2-.34,2.24,2.24,0,0,1-1.2.34m-2-1.19h0"/><path class="cls-51" d="M529.92,263.08a2.28,2.28,0,0,1-2-1.19h0a2.34,2.34,0,0,1-.27-1.08,2.24,2.24,0,0,1,.85-1.77,2.22,2.22,0,0,0-.51,1.42,2.28,2.28,0,0,0,2.28,2.28,2.22,2.22,0,0,0,1.42-.51,2.13,2.13,0,0,1-.57.51,2.24,2.24,0,0,1-1.2.34"/><path class="cls-7" d="M562.3,258.4a2.28,2.28,0,1,1-2.28,2.27,2.27,2.27,0,0,1,2.28-2.27"/><path class="cls-51" d="M562.3,263a2.28,2.28,0,0,1-1.43-4.05,2.28,2.28,0,0,0,1.77,3.7,2.3,2.3,0,0,0,1.43-.5,2.31,2.31,0,0,1-1.77.85"/><path class="cls-7" d="M565.08,248.09a2.28,2.28,0,1,1-2.28,2.28,2.28,2.28,0,0,1,2.28-2.28"/><path class="cls-51" d="M565.08,252.64a2.28,2.28,0,0,1-1.43-4,2.28,2.28,0,0,0,1.77,3.71,2.25,2.25,0,0,0,1.43-.51,2.27,2.27,0,0,1-1.77.85"/><path class="cls-7" d="M565,234.71A2.28,2.28,0,1,1,562.7,237a2.27,2.27,0,0,1,2.28-2.27"/><path class="cls-50" d="M565,239.26a2.27,2.27,0,0,1-1.94-1.08,2.27,2.27,0,0,0,3.22.68,2.28,2.28,0,0,1-1.28.4m1.28-.4h0"/><path class="cls-51" d="M565,239.26a2.27,2.27,0,0,1-1.94-1.08,2.24,2.24,0,0,1-.34-1.2,2.27,2.27,0,0,1,.85-1.77,2.24,2.24,0,0,0-.5,1.43,2.27,2.27,0,0,0,2.27,2.27,2.3,2.3,0,0,0,1.43-.5,2.32,2.32,0,0,1-.49.45h0a2.28,2.28,0,0,1-1.28.4"/><path class="cls-7" d="M562.56,226.41a2.28,2.28,0,1,1-2.27,2.28,2.28,2.28,0,0,1,2.27-2.28"/><path class="cls-50" d="M560.49,229.64l-.08-.2h0l.08.2m-.08-1.7h0c0-.09.07-.18.11-.26,0,.08-.07.17-.11.26"/><path class="cls-52" d="M560.41,229.44a2.36,2.36,0,0,1-.12-.75,2.27,2.27,0,0,1,.12-.75h0a2.27,2.27,0,0,0-.12.75,2.31,2.31,0,0,0,.12.75h0"/><polyline class="cls-50" points="560.52 227.68 560.52 227.68 560.52 227.68"/><path class="cls-51" d="M562.56,231a2.27,2.27,0,0,1-2.07-1.32l-.08-.2a2.31,2.31,0,0,1-.12-.75,2.27,2.27,0,0,1,.12-.75c0-.09.07-.18.11-.26h0a2.19,2.19,0,0,1,.62-.76,2.22,2.22,0,0,0-.51,1.42,2.28,2.28,0,0,0,2.28,2.28,2.22,2.22,0,0,0,1.42-.51,2.24,2.24,0,0,1-1.77.85"/><path class="cls-3" d="M540.75,244.69a4,4,0,1,0,4-4,4,4,0,0,0-4,4Zm10.66,0a6.67,6.67,0,1,1-6.67-6.66,6.68,6.68,0,0,1,6.67,6.66Z"/><path class="cls-2" d="M551.15,244.69a6.42,6.42,0,1,1-6.41-6.41,6.43,6.43,0,0,1,6.41,6.41Zm-8.7-12.83v2.08a10.85,10.85,0,0,0-3.69,1.53L537.28,234a1,1,0,0,0-1.38,0l-1.85,1.86a1,1,0,0,0,0,1.38l1.47,1.47A10.93,10.93,0,0,0,534,242.4h-2.08a1,1,0,0,0-1,1V246a1,1,0,0,0,1,1H534a10.87,10.87,0,0,0,1.5,3.65l-1.44,1.44a1,1,0,0,0,0,1.38l1.85,1.86a1,1,0,0,0,1.38,0l1.43-1.43a10.89,10.89,0,0,0,3.74,1.57v2a1,1,0,0,0,1,1h2.63a1,1,0,0,0,1-1v-2a10.93,10.93,0,0,0,3.73-1.57l1.43,1.43a1,1,0,0,0,1.38,0l1.86-1.86a1,1,0,0,0,0-1.38L554,250.63a11.08,11.08,0,0,0,1.5-3.65h2.08a1,1,0,0,0,1-1v-2.63a1,1,0,0,0-1-1h-2.08a10.93,10.93,0,0,0-1.53-3.69l1.47-1.47a1,1,0,0,0,0-1.38L553.57,234a1,1,0,0,0-1.38,0l-1.47,1.47a10.93,10.93,0,0,0-3.69-1.53v-2.08a1,1,0,0,0-1-1h-2.63a1,1,0,0,0-1,1Z"/><path class="cls-53" d="M481,398.59H378.18a3.71,3.71,0,0,0-3.71,3.71v62.48a3.71,3.71,0,0,0,3.71,3.71H481a3.71,3.71,0,0,0,3.71-3.71V402.3a3.71,3.71,0,0,0-3.71-3.71"/><path class="cls-54" d="M481,398.59H378.18a3.71,3.71,0,0,0-3.71,3.71v9.4H484.72v-9.4a3.71,3.71,0,0,0-3.71-3.71"/><path class="cls-6" d="M387.5,402.92a2.23,2.23,0,1,1-2.22,2.22,2.22,2.22,0,0,1,2.22-2.22Z"/><path class="cls-15" d="M396.76,402.92a2.23,2.23,0,1,1-2.22,2.22,2.22,2.22,0,0,1,2.22-2.22Z"/><path class="cls-8" d="M406,402.92a2.23,2.23,0,1,1-2.22,2.22,2.22,2.22,0,0,1,2.22-2.22Z"/><path class="cls-50" d="M481,468.49h0a4.15,4.15,0,0,0,1-.13,3.71,3.71,0,0,1-1,.13m-53.65,0H378.18a3.71,3.71,0,0,1-3.71-3.71h0a3.71,3.71,0,0,0,3.71,3.71h49.18"/><polyline class="cls-55" points="431.84 468.49 427.36 468.49 427.36 468.49 431.84 468.49 431.84 468.49 431.84 468.49"/><path class="cls-50" d="M482,468.36h0M374.47,402.3h0"/><path class="cls-56" d="M481,468.85H378.18a3.72,3.72,0,0,1-3.71-3.74V411.7h2.61v50.79a3.72,3.72,0,0,0,3.71,3.73H483.61a3.51,3.51,0,0,0,1-.13,3.73,3.73,0,0,1-2.58,2.62h0a3.72,3.72,0,0,1-1,.14"/><path class="cls-53" d="M377.08,411.7h-2.61v-9.4h0a3.71,3.71,0,0,1,2.74-3.56,3.85,3.85,0,0,0-.13,1v12"/><path class="cls-6" d="M438.12,433.54h31.4a2.89,2.89,0,0,0,2.9-2.89v-5.14a2.89,2.89,0,0,0-2.9-2.89h-31.4a2.89,2.89,0,0,0-2.9,2.89v5.14a2.89,2.89,0,0,0,2.9,2.89Z"/><path class="cls-2" d="M462.08,443.83H437.76a2.24,2.24,0,0,1,0-4.48h24.32a2.24,2.24,0,1,1,0,4.48Z"/><path class="cls-2" d="M453.82,451.92H437.76a2.24,2.24,0,0,1,0-4.48h16.06a2.24,2.24,0,0,1,0,4.48Z"/><path class="cls-15" d="M421.07,458.69h-15.7V421.5h15.7a2.89,2.89,0,0,1,2.9,2.89V455.8a2.89,2.89,0,0,1-2.9,2.89Z"/><path class="cls-7" d="M405.37,458.69h-15.7a2.89,2.89,0,0,1-2.9-2.89V424.39a2.89,2.89,0,0,1,2.9-2.89h15.7v37.19Z"/><path class="cls-57" d="M212.94,244.05l-12.6-2.65a.22.22,0,0,0-.18.38l1.81,1.47H151.34a.54.54,0,0,0-.54.54v.93a.54.54,0,0,0,.54.55H202l-1.84,1.47a.22.22,0,0,0,.18.38l12.58-2.65A.21.21,0,0,0,212.94,244.05Z"/><path class="cls-57" d="M357.61,244.05,345,241.4a.22.22,0,0,0-.18.38l1.81,1.47H296a.54.54,0,0,0-.54.54v.93a.54.54,0,0,0,.54.55h50.68l-1.84,1.47a.22.22,0,0,0,.18.38l12.58-2.65A.21.21,0,0,0,357.61,244.05Z"/><path class="cls-57" d="M356.72,410.2l-12.6-2.66a.22.22,0,0,0-.18.39l1.81,1.46H295.12a.55.55,0,0,0-.54.55v.93a.55.55,0,0,0,.54.55H345.8L344,412.88a.22.22,0,0,0,.18.39l12.58-2.65A.21.21,0,0,0,356.72,410.2Z"/><path class="cls-57" d="M502.28,244.05l-12.6-2.65a.22.22,0,0,0-.18.38l1.81,1.47H440.68a.54.54,0,0,0-.54.54v.93a.54.54,0,0,0,.54.55h50.67l-1.83,1.47a.22.22,0,0,0,.18.38l12.58-2.65A.21.21,0,0,0,502.28,244.05Z"/><path class="cls-57" d="M647,244.05l-12.6-2.65a.22.22,0,0,0-.18.38l1.8,1.47H585.35a.55.55,0,0,0-.55.54v.93a.55.55,0,0,0,.55.55H636l-1.84,1.47a.22.22,0,0,0,.19.38L647,244.47A.21.21,0,0,0,647,244.05Z"/><path class="cls-57" d="M357.61,461.26,345,458.61a.22.22,0,0,0-.18.38l1.81,1.47H151.34a.54.54,0,0,0-.54.54v.93a.54.54,0,0,0,.54.55H346.69L344.85,464a.22.22,0,0,0,.18.38l12.58-2.65A.21.21,0,0,0,357.61,461.26Z"/><path class="cls-57" d="M401.53,204.61l-1.47,1.81V134.73a.54.54,0,0,0-.55-.55H296a.54.54,0,0,0-.54.55v.93a.54.54,0,0,0,.54.54H398v70.26l-1.47-1.83a.22.22,0,0,0-.38.18l2.65,12.58a.21.21,0,0,0,.42,0l2.65-12.6A.22.22,0,0,0,401.53,204.61Z"/><path class="cls-57" d="M217.05,407.88l-12.6-2.65a.22.22,0,0,0-.19.38l1.81,1.47h-25.4a.55.55,0,0,0-.54.55v54a.54.54,0,0,0,.54.54h.93a.54.54,0,0,0,.55-.54V409.11h24l-1.84,1.46a.22.22,0,0,0,.18.39l12.59-2.65A.22.22,0,0,0,217.05,407.88Z"/><path class="cls-57" d="M399.41,304.86a.21.21,0,0,0-.42,0l-2.65,12.6a.22.22,0,0,0,.38.18l1.47-1.81v5.5h0v23H320.35a.55.55,0,0,0-.55.55v64.69c0,.46.25.83.55.83h.93c.3,0,.54-.37.54-.83V346.37h77.85a.55.55,0,0,0,.54-.55v-30l1.47,1.84a.22.22,0,0,0,.38-.18Z"/><text class="cls-58" transform="translate(79.26 281.82)">工况模拟器<tspan x="-28.49" y="14.4">（某种电池+传感器）</tspan></text><rect class="cls-1" width="753.05" height="67.79" rx="5.67"/><text class="cls-59" transform="translate(148.93 43.42)">智能电池管理系统验证平台</text><text class="cls-58" transform="translate(75.1 490.37)">真实工况环境<tspan x="-48.74" y="14.4">（F</tspan><tspan class="cls-60" x="-30.27" y="14.4">P</tspan><tspan x="-22.83" y="14.4">GA原型机+电池+传感器）</tspan></text><text class="cls-58" transform="translate(402.95 487.89)">数据汇总</text><text class="cls-58" transform="translate(226.05 185.32)">历史数据集</text><text class="cls-58" transform="translate(229.01 281.82)">测试设备</text><text class="cls-58" transform="translate(230.58 445.17)">测试设备</text><text class="cls-58" transform="translate(368.62 281.82)">训练数据集</text><text class="cls-58" transform="translate(646.63 285.69)">F<tspan class="cls-60" x="6.47" y="0">P</tspan><tspan x="13.92" y="0">GA原型机实现</tspan></text><text class="cls-58" transform="translate(522.51 281.82)">算法模型</text></g></g></svg>